<?xml version="1.0" standalone="no"?>
<!DOCTYPE svg PUBLIC "-//W3C//DTD SVG 20010904//EN"
 "http://www.w3.org/TR/2001/REC-SVG-20010904/DTD/svg10.dtd">
<svg version="1.0" xmlns="http://www.w3.org/2000/svg"
 width="170.000000pt" height="170.000000pt" viewBox="0 0 170.000000 170.000000"
 preserveAspectRatio="xMidYMid meet">

<g transform="translate(0.000000,170.000000) scale(0.100000,-0.100000)"
fill="#000000" stroke="none">
<path d="M675 1601 c-232 -58 -417 -207 -516 -416 -91 -189 -102 -392 -34
-588 55 -158 190 -323 331 -405 445 -259 999 -31 1140 468 27 97 26 290 -4
393 -80 281 -297 487 -582 552 -87 20 -247 18 -335 -4z m387 -682 c86 -206
157 -383 157 -393 1 -26 -27 -56 -53 -56 -12 0 -111 74 -231 170 l-209 170
-66 -165 -65 -165 -57 0 c-56 0 -57 1 -49 23 5 12 81 195 169 407 170 408 180
426 227 396 13 -8 76 -146 177 -387z"/>
<path d="M812 1024 c-29 -70 -51 -128 -49 -129 1 -1 66 -53 145 -115 79 -62
144 -111 146 -109 2 2 -40 111 -94 242 l-97 239 -51 -128z"/>
</g>
</svg>
